<svg xmlns="http://www.w3.org/2000/svg" version="1.1" xmlns:xlink="http://www.w3.org/1999/xlink" xmlns:svgjs="http://svgjs.dev/svgjs" width="2000" height="2043" viewBox="0 0 2000 2043"><g transform="matrix(1,0,0,1,-1.2379098327759266,-2.890627659574079)"><svg viewBox="0 0 138 141" data-background-color="#ffffff" preserveAspectRatio="xMidYMid meet" height="2043" width="2000" xmlns="http://www.w3.org/2000/svg" xmlns:xlink="http://www.w3.org/1999/xlink"><g id="tight-bounds" transform="matrix(1,0,0,1,0.08541577846153814,0.19949999999997203)"><svg viewBox="0 0 137.82916844307695 140.60052000000002" height="140.60052000000002" width="137.82916844307695"><g><svg viewBox="0 0 137.82916844307695 140.60052000000002" height="140.60052000000002" width="137.82916844307695"><g><svg viewBox="0 0 137.82916844307695 140.60052000000002" height="140.60052000000002" width="137.82916844307695"><g><path d="M0 140.601v-140.601h137.829v140.601z" fill="#915eff" stroke="transparent" stroke-width="0" rx="0%" data-fill-palette-color="tertiary"></path><path d="M3.283 137.317v-134.034h131.263v134.034z" fill="#ffffff" stroke="transparent" stroke-width="0" rx="0%" data-fill-palette-color="quaternary"></path><path d="M9.85 130.751v-120.901h118.129v120.901z" fill="#915eff" stroke="transparent" stroke-width="0" data-fill-palette-color="tertiary"></path></g><g transform="matrix(1,0,0,1,19.69974,19.69974)" id="textblocktransform"><svg viewBox="0 0 98.42968844307696 101.20104000000002" height="101.20104000000002" width="98.42968844307696" id="textblock"><g><svg viewBox="0 0 98.42968844307696 101.20104000000002" height="101.20104000000002" width="98.42968844307696"><g transform="matrix(1,0,0,1,0,0)"><svg width="98.42968844307696" viewBox="-0.7 -32.35 31.609999997975 32.5" height="101.20104000000002" data-palette-color="#ffffff"><path d="M4.65-6.8L4.65-6.8Q4.65-6.8 5.13-8.03 5.6-9.25 6.4-11.35 7.2-13.45 8.22-16.03 9.25-18.6 10.3-21.33 11.35-24.05 12.33-26.55 13.3-29.05 14.05-30.95L14.05-30.95Q14.25-31.35 14.93-31.85 15.6-32.35 15.95-32.35L15.95-32.35Q16.05-32.35 16.07-32.33 16.1-32.3 16.2-32.25L16.2-32.25 26.15-6.15Q27.25-3.25 27.4-2.95L27.4-2.95Q27.65-2.4 28.38-2 29.1-1.6 29.83-1.43 30.55-1.25 30.75-1.25L30.75-1.25Q30.95-1 30.9-0.48 30.85 0.05 30.8 0.15L30.8 0.15Q29.35 0.05 28.2-0.03 27.05-0.1 25.45-0.1L25.45-0.1Q23.75-0.1 22.63-0.03 21.5 0.05 19.8 0.15L19.8 0.15Q19.6-0.05 19.63-0.55 19.65-1.05 19.85-1.25L19.85-1.25Q20.3-1.25 21.25-1.43 22.2-1.6 22.55-1.9L22.55-1.9Q22.75-2.1 22.75-2.6L22.75-2.6Q22.75-3.05 22.43-4.13 22.1-5.2 21.6-6.55 21.1-7.9 20.6-9.18 20.1-10.45 19.78-11.28 19.45-12.1 19.45-12.1L19.45-12.1Q19.45-12.1 19.35-12.2 19.25-12.3 19.15-12.3L19.15-12.3Q18.4-12.35 17.3-12.35 16.2-12.35 15.25-12.35L15.25-12.35Q15-12.35 14.75-12.35 14.5-12.35 14.3-12.35L14.3-12.35Q12.8-12.35 11.75-12.33 10.7-12.3 9.05-12.2L9.05-12.2Q9-12.2 8.9-12.13 8.8-12.05 8.8-12.05L8.8-12.05Q8.8-12.05 8.43-11.05 8.05-10.05 7.53-8.68 7-7.3 6.6-6.1L6.6-6.1Q6.15-4.85 6.03-4 5.9-3.15 5.9-2.65L5.9-2.65Q5.9-2.1 6.68-1.78 7.45-1.45 8.28-1.35 9.1-1.25 9.3-1.25L9.3-1.25Q9.4-1.15 9.45-0.63 9.5-0.1 9.4 0.15L9.4 0.15Q8.45 0.1 7.78 0.05 7.1 0 6.43-0.05 5.75-0.1 4.65-0.1L4.65-0.1Q3.55-0.1 2.8-0.05 2.05 0 1.3 0.05 0.55 0.1-0.6 0.15L-0.6 0.15Q-0.7 0.05-0.7-0.48-0.7-1-0.6-1.25L-0.6-1.25Q-0.15-1.25 0.93-1.48 2-1.7 2.35-2.2L2.35-2.2Q3.1-3.15 3.63-4.33 4.15-5.5 4.65-6.8ZM18.5-14.65L14.2-26.45 9.75-14.55Q9.75-14.55 9.78-14.45 9.8-14.35 9.85-14.35L9.85-14.35Q10.8-14.3 12.13-14.28 13.45-14.25 14.25-14.25L14.25-14.25Q15.4-14.25 16.32-14.3 17.25-14.35 18.35-14.4L18.35-14.4Q18.45-14.4 18.48-14.53 18.5-14.65 18.5-14.65L18.5-14.65Z" opacity="1" transform="matrix(1,0,0,1,0,0)" fill="#ffffff" class="wordmark-text-0" data-fill-palette-color="quaternary" id="text-0"></path></svg></g></svg></g></svg></g></svg></g><g></g></svg></g><defs></defs></svg><rect width="137.82916844307695" height="140.60052000000002" fill="none" stroke="none" visibility="hidden"></rect></g></svg></g></svg>